<?xml version="1.0" encoding="UTF-8"?>
<svg width="24px" height="24px" viewBox="0 0 24 24" version="1.1" xmlns="http://www.w3.org/2000/svg" xmlns:xlink="http://www.w3.org/1999/xlink">
    <!-- Generator: Sketch 50 (54983) - http://www.bohemiancoding.com/sketch -->
    <title>shopify</title>
    <desc>Created with Sketch.</desc>
    <defs></defs>
    <g id="shopify" stroke="none" stroke-width="1" fill="none" fill-rule="evenodd" stroke-linecap="round" stroke-linejoin="round">
        <g transform="translate(0.000000, 2.000000)" stroke="#67768A">
            <g id="Group">
                <path d="M18.7,18.2 L11.5,18.2 C7.1,18.2 3.5,14.6 3.5,10.2 L3.5,9.9 C3.5,5.5 7.1,1.9 11.5,1.9 L18.7,1.9" id="Shape"></path>
                <path d="M19.3,0.1 L19.3,19.9" id="Shape"></path>
                <path d="M3,10 L0.6,10" id="Shape"></path>
                <path d="M19.9,4.7 L23.4,4.7" id="Shape"></path>
                <path d="M19.9,15.3 L23.4,15.3" id="Shape"></path>
            </g>
            <path d="M15.6,5.6 C15.2,5.4 14.3,4.9 13.2,5 C12.6,5 11.9,5 11.3,5.5 C10.6,6 10.1,7.1 10.3,7.9 C10.5,8.5 11.2,8.9 12.6,9.8 C13.1,10.1 13.4,10.3 13.7,10.7 C13.9,11 14.5,11.6 14.4,12.3 C14.3,12.9 13.9,13.3 13.8,13.5 C12.9,14.4 10.7,14.4 8.3,13.5" id="Shape"></path>
        </g>
    </g>
</svg>